<svg width="170" height="56" viewBox="0 0 170 56" fill="none" xmlns="http://www.w3.org/2000/svg">
<path d="M137.897 12.3071H130.585V26.694C130.462 30.5586 127.319 33.6647 123.47 33.6647C119.543 33.6647 116.348 30.4327 116.348 26.4601H116.349V12.3071H109.048V26.4601C109.049 34.5051 115.518 41.0501 123.47 41.0501C126.056 41.0501 128.484 40.354 130.585 39.1426V40.6123C130.397 45.7626 127.586 48.6885 123.456 48.7235C120.6 48.7477 118.76 47.0718 117.675 45.6175H109.752C110.094 46.6514 110.684 48.712 112.737 51.0247C115 53.5741 118.688 56.0001 123.246 55.9999C123.446 55.9999 123.649 55.9952 123.852 55.9857C132.198 55.5987 137.76 49.4719 137.895 40.6461L137.897 40.6453V12.3071Z" fill="#1771DD"/>
<path d="M28.5911 12.2796L13.5424 12.2397C5.99495 12.7211 0 18.6476 0 26.3671C0 34.3991 6.48905 40.9335 14.4653 40.9335C21.7488 40.9335 28.5692 35.4745 28.5692 27.4425L28.5911 12.2796ZM14.4179 33.5498C10.4921 33.5498 7.29826 30.3186 7.29826 26.3469C7.29826 22.3753 10.4921 19.144 14.4179 19.144C18.3437 19.144 21.5374 22.3753 21.5374 26.3469C21.5374 30.3186 18.3437 33.5498 14.4179 33.5498Z" fill="#1771DD"/>
<path d="M46.7843 11.7571C38.9015 11.7571 32.4792 18.1899 32.3683 26.1388H32.3659V26.2327C32.3656 26.2709 32.363 26.3086 32.363 26.347C32.363 26.3853 32.3656 26.423 32.3659 26.4613V53.8952H39.6653V39.0275C41.7673 40.2402 44.1962 40.937 46.7843 40.937C54.7361 40.937 61.2055 34.392 61.2055 26.347C61.2055 18.3021 54.7361 11.7571 46.7843 11.7571ZM46.7843 33.5516C42.8875 33.5516 39.7134 30.3683 39.6653 26.4373V26.2567C39.7134 22.3258 42.8875 19.1425 46.7843 19.1425C50.711 19.1425 53.9056 22.3745 53.9056 26.347C53.9056 30.3196 50.711 33.5516 46.7843 33.5516Z" fill="#1771DD"/>
<path d="M86.62 8.64528C88.9797 8.64528 90.8927 6.70997 90.8927 4.32264C90.8927 1.93532 88.9797 0 86.62 0C84.2603 0 82.3474 1.93532 82.3474 4.32264C82.3474 6.70997 84.2603 8.64528 86.62 8.64528Z" fill="#1771DD"/>
<path d="M90.2757 12.3149H82.9641V40.369H90.2757V12.3149Z" fill="#1771DD"/>
<path d="M78.2777 33.3664C74.3987 33.3452 71.5781 30.0641 71.507 26.122V18.8162H78.03V12.3149H71.507V11.9908V11.9857V5.29956H64.1955V11.9857V11.9908V26.1103H64.1943C64.1943 30.0664 65.6883 33.7536 68.4009 36.493C70.8588 38.9749 73.4599 40.8418 79.3373 40.2797L78.2777 33.3664Z" fill="#1771DD"/>
<path d="M153.597 33.3301L168.759 19.2703V19.2701V19.2699V12.2312H142.818V19.2703H158.039L142.877 33.3301H142.876V40.3691H170V33.3301H153.597Z" fill="#1771DD"/>
<path d="M104.02 2.13159H96.7085V40.3691H104.02V2.13159Z" fill="#1771DD"/>
</svg>
